<svg width="40" height="40" viewBox="0 0 40 40" fill="none" xmlns="http://www.w3.org/2000/svg">
<rect width="40" height="40" fill="#EFF0F6"/>
<path d="M27.1555 24.4969H25.7553L25.259 24.0183C26.996 21.9977 28.0417 19.3745 28.0417 16.5209C28.0417 10.1578 22.8839 5 16.5209 5C10.1578 5 5 10.1578 5 16.5209C5 22.8839 10.1578 28.0417 16.5209 28.0417C19.3745 28.0417 21.9977 26.996 24.0183 25.259L24.4969 25.7553V27.1555L33.3591 36L36 33.3591L27.1555 24.4969ZM16.5209 24.4969C12.1075 24.4969 8.54488 20.9342 8.54488 16.5209C8.54488 12.1075 12.1075 8.54488 16.5209 8.54488C20.9342 8.54488 24.4969 12.1075 24.4969 16.5209C24.4969 20.9342 20.9342 24.4969 16.5209 24.4969Z" fill="white" stroke="#612EEA"/>
<path fill-rule="evenodd" clip-rule="evenodd" d="M17.2333 11.3667H15.7666V15.7667H11.3666V17.2333H15.7666V21.6333H17.2333V17.2333H21.6333V16.5V15.7667H17.2333V11.3667Z" fill="white"/>
<path d="M15.7667 11.3667V11.1833H15.5834V11.3667H15.7667ZM17.2334 11.3667H17.4167V11.1833H17.2334V11.3667ZM15.7667 15.7667V15.95H15.95V15.7667H15.7667ZM11.3667 15.7667V15.5833H11.1833V15.7667H11.3667ZM11.3667 17.2333H11.1833V17.4167H11.3667V17.2333ZM15.7667 17.2333H15.95V17.05H15.7667V17.2333ZM15.7667 21.6333H15.5834V21.8167H15.7667V21.6333ZM17.2334 21.6333V21.8167H17.4167V21.6333H17.2334ZM17.2334 17.2333V17.05H17.05V17.2333H17.2334ZM21.6334 17.2333V17.4167H21.8167V17.2333H21.6334ZM21.6334 15.7667H21.8167V15.5833H21.6334V15.7667ZM17.2334 15.7667H17.05V15.95H17.2334V15.7667ZM15.7667 11.55H17.2334V11.1833H15.7667V11.55ZM15.95 15.7667V11.3667H15.5834V15.7667H15.95ZM11.3667 15.95H15.7667V15.5833H11.3667V15.95ZM11.55 17.2333V15.7667H11.1833V17.2333H11.55ZM15.7667 17.05H11.3667V17.4167H15.7667V17.05ZM15.95 21.6333V17.2333H15.5834V21.6333H15.95ZM17.2334 21.45H15.7667V21.8167H17.2334V21.45ZM17.05 17.2333V21.6333H17.4167V17.2333H17.05ZM21.6334 17.05H17.2334V17.4167H21.6334V17.05ZM21.45 16.5V17.2333H21.8167V16.5H21.45ZM21.45 15.7667V16.5H21.8167V15.7667H21.45ZM17.2334 15.95H21.6334V15.5833H17.2334V15.95ZM17.05 11.3667V15.7667H17.4167V11.3667H17.05Z" fill="#612EEA"/>
</svg>
