<svg width="42" height="42" viewBox="0 0 42 42" fill="none" xmlns="http://www.w3.org/2000/svg">
<path d="M41 1H1V41H41V1Z" fill="#EFF0F6"/>
<path fill-rule="evenodd" clip-rule="evenodd" d="M26.6667 9.88547L25.6679 10.9228L21.7083 6.81767V20.2917H35.1535L31.0065 16.3321L32.0544 15.3333L38 21L32.0544 26.6667L31.0065 25.6679L35.1535 21.7083H21.7084V35.163L25.668 31.0296L26.6667 32.0741L21.0001 38L15.3334 32.0741L16.3322 31.0296L20.2917 35.163V21.7083H6.84481L10.9895 25.6679L9.94218 26.6667L3.99999 21L9.94218 15.3333L10.9895 16.3321L6.84481 20.2917H20.2917V6.81767L16.3321 10.9228L15.3333 9.88547L21 4.00001L26.6667 9.88547Z" fill="#612EEA"/>
<rect x="0.5" y="0.5" width="41" height="41" stroke="#612EEA"/>
</svg>
