<svg width="42" height="42" viewBox="0 0 42 42" fill="none" xmlns="http://www.w3.org/2000/svg">
<rect x="0.5" y="0.5" width="41" height="41" fill="#EFF0F6"/>
<path opacity="0.4" d="M41 1H1V41H41V1Z" fill="#EFF0F6"/>
<path fill-rule="evenodd" clip-rule="evenodd" d="M28.8919 7.46017L33.1953 6.02568L33.5116 6.97436L29.0116 8.47435L28.8152 8.53984L28.6299 8.44722L21.9522 5.10839L13.2071 13.8535L12.8535 14.2071L12.5 13.8535L6 7.35356L6.70711 6.64646L12.8535 12.7929L21.5 4.14645L21.7548 3.89163L22.0771 4.05279L28.8919 7.46017Z" fill="#A0A3BD"/>
<path d="M12.8536 15.75C14.0963 15.75 15.1036 14.7426 15.1036 13.5C15.1036 12.2574 14.0963 11.25 12.8536 11.25C11.611 11.25 10.6036 12.2574 10.6036 13.5C10.6036 14.7426 11.611 15.75 12.8536 15.75Z" fill="#612EEA" stroke="#612EEA" stroke-width="0.5"/>
<path d="M30.1036 8C30.1036 8.69036 29.5439 9.25 28.8536 9.25C28.1632 9.25 27.6036 8.69036 27.6036 8C27.6036 7.30964 28.1632 6.75 28.8536 6.75C29.5439 6.75 30.1036 7.30964 30.1036 8Z" fill="#A0A3BD" stroke="#A0A3BD" stroke-width="0.5"/>
<path d="M23.1036 4.5C23.1036 5.19036 22.5439 5.75 21.8536 5.75C21.1632 5.75 20.6036 5.19036 20.6036 4.5C20.6036 3.80964 21.1632 3.25 21.8536 3.25C22.5439 3.25 23.1036 3.80964 23.1036 4.5Z" fill="#A0A3BD" stroke="#A0A3BD" stroke-width="0.5"/>
<path d="M21.9945 37.7531L19.473 17L37.4969 29.9563L36.2932 30.0095C30.5916 30.2613 25.321 33.1157 21.9945 37.7531Z" fill="white" stroke="#612EEA"/>
<path d="M4 3H19V17H4V3Z" fill="#D9D9D9" fill-opacity="0.5"/>
<line x1="14" y1="16.5" x2="18" y2="16.5" stroke="#612EEA"/>
<line x1="5" y1="16.5" x2="9" y2="16.5" stroke="#612EEA"/>
<line x1="5" y1="3.5" x2="9" y2="3.5" stroke="#612EEA"/>
<line x1="14" y1="3.5" x2="18" y2="3.5" stroke="#612EEA"/>
<line x1="18.5" y1="3" x2="18.5" y2="8" stroke="#612EEA"/>
<line x1="18.5" y1="12" x2="18.5" y2="17" stroke="#612EEA"/>
<line x1="4.5" y1="12" x2="4.5" y2="17" stroke="#612EEA"/>
<line x1="4.5" y1="3" x2="4.5" y2="8" stroke="#612EEA"/>
<rect x="0.5" y="0.5" width="41" height="41" stroke="#612EEA"/>
</svg>
