<svg width="42" height="42" viewBox="0 0 42 42" fill="none" xmlns="http://www.w3.org/2000/svg">
<rect x="1" y="1" width="40" height="40" fill="#EFF0F6"/>
<rect opacity="0.4" x="1" y="1" width="40" height="40" fill="#EFF0F6"/>
<path fill-rule="evenodd" clip-rule="evenodd" d="M28.5383 7.46016L32.8417 6.02567L33.158 6.97435L28.6581 8.47434L28.4616 8.53983L28.2763 8.44721L21.5987 5.10838L12.8535 13.8535L12.4999 14.2071L12.1464 13.8535L5.64642 7.35355L6.35353 6.64645L12.4999 12.7929L21.1464 4.14644L21.4012 3.89162L21.7235 4.05278L28.5383 7.46016Z" fill="#A0A3BD"/>
<circle cx="12.5" cy="13.5" r="1.25" fill="#A0A3BD" stroke="#A0A3BD" stroke-width="0.5"/>
<path d="M29.75 8C29.75 8.69036 29.1904 9.25 28.5 9.25C27.8096 9.25 27.25 8.69036 27.25 8C27.25 7.30964 27.8096 6.75 28.5 6.75C29.1904 6.75 29.75 7.30964 29.75 8Z" fill="#A0A3BD" stroke="#A0A3BD" stroke-width="0.5"/>
<path d="M22.75 4.5C22.75 5.19036 22.1904 5.75 21.5 5.75C20.8096 5.75 20.25 5.19036 20.25 4.5C20.25 3.80964 20.8096 3.25 21.5 3.25C22.1904 3.25 22.75 3.80964 22.75 4.5Z" fill="#A0A3BD" stroke="#A0A3BD" stroke-width="0.5"/>
<path d="M8 8.5H7.5V9V9.875H8V11.625H7.5V13.375H8V15.125H7.5V16V16.5H8H8.9375V16H10.8125V16.5H12.6875V16H14.5625V16.5H15.5H16V16V15.125H15.5V13.375H16V11.625H15.5V9.875H16V9V8.5H15.5H14.5625V9H12.6875V8.5H10.8125V9H8.9375V8.5H8Z" fill="#D9D9D9" fill-opacity="0.5" stroke="#612EEA" stroke-dasharray="2 2"/>
<path d="M18.9945 37.7531L16.473 17L34.4969 29.9563L33.2932 30.0095C27.5916 30.2613 22.321 33.1157 18.9945 37.7531Z" fill="white" stroke="#612EEA"/>
<path fill-rule="evenodd" clip-rule="evenodd" d="M32 22V26H33V22H37V21H33V17H32V21H28V22H32Z" fill="#612EEA"/>
<rect x="1" y="1" width="40" height="40" stroke="#612EEA"/>
</svg>
