<svg width="40" height="40" viewBox="0 0 40 40" fill="none" xmlns="http://www.w3.org/2000/svg">
<path d="M40 0H0V40H40V0Z" fill="#EFF0F6"/>
<mask id="path-2-outside-1_442_1043" maskUnits="userSpaceOnUse" x="1" y="1" width="38" height="38" fill="black">
<rect fill="white" x="1" y="1" width="38" height="38"/>
<path fill-rule="evenodd" clip-rule="evenodd" d="M25.6667 8.88546L24.6679 9.92277L20.7084 5.81766V19.2917H34.1535L30.0065 15.3321L31.0544 14.3333L37 20L31.0544 25.6667L30.0065 24.6679L34.1535 20.7083H20.7084V34.163L24.668 30.0296L25.6667 31.0741L20.0001 37L14.3334 31.0741L15.3322 30.0296L19.2917 34.163V20.7083H5.84482L9.9895 24.6679L8.94219 25.6667L3 20L8.94219 14.3333L9.9895 15.3321L5.84482 19.2917H19.2917V5.81766L15.3321 9.92277L14.3334 8.88546L20 3L25.6667 8.88546Z"/>
</mask>
<path fill-rule="evenodd" clip-rule="evenodd" d="M25.6667 8.88546L24.6679 9.92277L20.7084 5.81766V19.2917H34.1535L30.0065 15.3321L31.0544 14.3333L37 20L31.0544 25.6667L30.0065 24.6679L34.1535 20.7083H20.7084V34.163L24.668 30.0296L25.6667 31.0741L20.0001 37L14.3334 31.0741L15.3322 30.0296L19.2917 34.163V20.7083H5.84482L9.9895 24.6679L8.94219 25.6667L3 20L8.94219 14.3333L9.9895 15.3321L5.84482 19.2917H19.2917V5.81766L15.3321 9.92277L14.3334 8.88546L20 3L25.6667 8.88546Z" fill="white"/>
<path d="M24.6679 9.92277L23.9482 10.617L24.6686 11.3639L25.3883 10.6164L24.6679 9.92277ZM25.6667 8.88546L26.3871 9.57905L27.0549 8.88546L26.3871 8.19187L25.6667 8.88546ZM20.7084 5.81766L21.4281 5.12343L19.7084 3.34047V5.81766H20.7084ZM20.7084 19.2917H19.7084V20.2917H20.7084V19.2917ZM34.1535 19.2917V20.2917H36.649L34.8441 18.5684L34.1535 19.2917ZM30.0065 15.3321L29.3165 14.6082L28.5577 15.3314L29.3159 16.0554L30.0065 15.3321ZM31.0544 14.3333L31.7443 13.6095L31.0544 12.9519L30.3645 13.6095L31.0544 14.3333ZM37 20L37.6899 20.7239L38.4494 20L37.6899 19.2761L37 20ZM31.0544 25.6667L30.3645 26.3906L31.0544 27.0481L31.7443 26.3906L31.0544 25.6667ZM30.0065 24.6679L29.3159 23.9447L28.5577 24.6686L29.3165 25.3918L30.0065 24.6679ZM34.1535 20.7083L34.8441 21.4316L36.649 19.7083H34.1535V20.7083ZM20.7084 20.7083V19.7083H19.7084V20.7083H20.7084ZM20.7084 34.163H19.7084V36.6524L21.4305 34.8547L20.7084 34.163ZM24.668 30.0296L25.3907 29.3385L24.6686 28.5834L23.9459 29.3378L24.668 30.0296ZM25.6667 31.0741L26.3895 31.7652L27.0504 31.0741L26.3895 30.3829L25.6667 31.0741ZM20.0001 37L19.2773 37.6911L20.0001 38.4469L20.7228 37.6911L20.0001 37ZM14.3334 31.0741L13.6107 30.3829L12.9498 31.0741L13.6107 31.7652L14.3334 31.0741ZM15.3322 30.0296L16.0543 29.3378L15.3315 28.5834L14.6094 29.3385L15.3322 30.0296ZM19.2917 34.163L18.5696 34.8547L20.2917 36.6524V34.163H19.2917ZM19.2917 20.7083H20.2917V19.7083H19.2917V20.7083ZM5.84482 20.7083V19.7083H3.35043L5.15404 21.4314L5.84482 20.7083ZM9.9895 24.6679L10.6796 25.3916L11.4378 24.6686L10.6803 23.9449L9.9895 24.6679ZM8.94219 25.6667L8.25206 26.3904L8.94219 27.0485L9.63232 26.3904L8.94219 25.6667ZM3 20L2.30987 19.2763L1.551 20L2.30987 20.7237L3 20ZM8.94219 14.3333L9.63232 13.6097L8.94219 12.9515L8.25206 13.6097L8.94219 14.3333ZM9.9895 15.3321L10.6803 16.0552L11.4378 15.3314L10.6796 14.6084L9.9895 15.3321ZM5.84482 19.2917L5.15404 18.5686L3.35043 20.2917H5.84482V19.2917ZM19.2917 19.2917V20.2917H20.2917V19.2917H19.2917ZM19.2917 5.81766H20.2917V3.34047L18.5719 5.12343L19.2917 5.81766ZM15.3321 9.92277L14.6117 10.6164L15.3315 11.3639L16.0519 10.617L15.3321 9.92277ZM14.3334 8.88546L13.613 8.19187L12.9452 8.88546L13.613 9.57905L14.3334 8.88546ZM20 3L20.7204 2.30641L20 1.55823L19.2796 2.30641L20 3ZM25.3883 10.6164L26.3871 9.57905L24.9463 8.19187L23.9476 9.22919L25.3883 10.6164ZM19.9886 6.51189L23.9482 10.617L25.3877 9.22854L21.4281 5.12343L19.9886 6.51189ZM21.7084 19.2917V5.81766H19.7084V19.2917H21.7084ZM34.1535 18.2917H20.7084V20.2917H34.1535V18.2917ZM29.3159 16.0554L33.463 20.0149L34.8441 18.5684L30.697 14.6088L29.3159 16.0554ZM30.3645 13.6095L29.3165 14.6082L30.6964 16.056L31.7443 15.0572L30.3645 13.6095ZM37.6899 19.2761L31.7443 13.6095L30.3645 15.0572L36.3101 20.7239L37.6899 19.2761ZM31.7443 26.3906L37.6899 20.7239L36.3101 19.2761L30.3645 24.9428L31.7443 26.3906ZM29.3165 25.3918L30.3645 26.3906L31.7443 24.9428L30.6964 23.944L29.3165 25.3918ZM33.463 19.9851L29.3159 23.9447L30.697 25.3912L34.8441 21.4316L33.463 19.9851ZM20.7084 21.7083H34.1535V19.7083H20.7084V21.7083ZM21.7084 34.163V20.7083H19.7084V34.163H21.7084ZM23.9459 29.3378L19.9863 33.4712L21.4305 34.8547L25.3901 30.7214L23.9459 29.3378ZM26.3895 30.3829L25.3907 29.3385L23.9453 30.7207L24.944 31.7652L26.3895 30.3829ZM20.7228 37.6911L26.3895 31.7652L24.944 30.3829L19.2773 36.3089L20.7228 37.6911ZM13.6107 31.7652L19.2773 37.6911L20.7228 36.3089L15.0562 30.3829L13.6107 31.7652ZM14.6094 29.3385L13.6107 30.3829L15.0562 31.7652L16.0549 30.7207L14.6094 29.3385ZM20.0139 33.4712L16.0543 29.3378L14.61 30.7214L18.5696 34.8547L20.0139 33.4712ZM18.2917 20.7083V34.163H20.2917V20.7083H18.2917ZM5.84482 21.7083H19.2917V19.7083H5.84482V21.7083ZM10.6803 23.9449L6.5356 19.9853L5.15404 21.4314L9.29872 25.391L10.6803 23.9449ZM9.63232 26.3904L10.6796 25.3916L9.29937 23.9442L8.25206 24.943L9.63232 26.3904ZM2.30987 20.7237L8.25206 26.3904L9.63232 24.943L3.69013 19.2763L2.30987 20.7237ZM8.25206 13.6097L2.30987 19.2763L3.69013 20.7237L9.63232 15.057L8.25206 13.6097ZM10.6796 14.6084L9.63232 13.6097L8.25206 15.057L9.29937 16.0558L10.6796 14.6084ZM6.5356 20.0147L10.6803 16.0552L9.29872 14.609L5.15404 18.5686L6.5356 20.0147ZM19.2917 18.2917H5.84482V20.2917H19.2917V18.2917ZM18.2917 5.81766V19.2917H20.2917V5.81766H18.2917ZM16.0519 10.617L20.0114 6.51189L18.5719 5.12343L14.6124 9.22854L16.0519 10.617ZM13.613 9.57905L14.6117 10.6164L16.0525 9.22919L15.0537 8.19187L13.613 9.57905ZM19.2796 2.30641L13.613 8.19187L15.0537 9.57905L20.7204 3.69359L19.2796 2.30641ZM26.3871 8.19187L20.7204 2.30641L19.2796 3.69359L24.9463 9.57905L26.3871 8.19187Z" fill="#612EEA" mask="url(#path-2-outside-1_442_1043)"/>
</svg>
