<svg width="42" height="42" viewBox="0 0 42 42" fill="none" xmlns="http://www.w3.org/2000/svg">
<rect x="1" y="1" width="40" height="40" fill="#EFF0F6"/>
<rect opacity="0.4" x="1" y="1" width="40" height="40" fill="#EFF0F6"/>
<path fill-rule="evenodd" clip-rule="evenodd" d="M28.5383 7.46016L32.8417 6.02567L33.158 6.97435L28.6581 8.47434L28.4616 8.53983L28.2763 8.44721L21.5987 5.10838L12.8535 13.8535L12.4999 14.2071L12.1464 13.8535L5.64642 7.35355L6.35353 6.64645L12.4999 12.7929L21.1464 4.14644L21.4012 3.89162L21.7235 4.05278L28.5383 7.46016Z" fill="#A0A3BD"/>
<circle cx="12.5" cy="13.5" r="1.25" fill="#612EEA" stroke="#612EEA" stroke-width="0.5"/>
<path d="M29.75 8C29.75 8.69036 29.1904 9.25 28.5 9.25C27.8096 9.25 27.25 8.69036 27.25 8C27.25 7.30964 27.8096 6.75 28.5 6.75C29.1904 6.75 29.75 7.30964 29.75 8Z" fill="#A0A3BD" stroke="#A0A3BD" stroke-width="0.5"/>
<path d="M22.75 4.5C22.75 5.19036 22.1904 5.75 21.5 5.75C20.8096 5.75 20.25 5.19036 20.25 4.5C20.25 3.80964 20.8096 3.25 21.5 3.25C22.1904 3.25 22.75 3.80964 22.75 4.5Z" fill="#A0A3BD" stroke="#A0A3BD" stroke-width="0.5"/>
<path d="M5 5.5H4.5V6V7.25H5V9.75H4.5V12.25H5V14.75H4.5V16V16.5H5H6.625V16H9.875V16.5H13.125V16H16.375V16.5H18H18.5V16V14.75H18V12.25H18.5V9.75H18V7.25H18.5V6V5.5H18H16.375V6H13.125V5.5H9.875V6H6.625V5.5H5Z" fill="#D9D9D9" fill-opacity="0.5" stroke="#612EEA" stroke-dasharray="3 3"/>
<path d="M21.9945 37.7531L19.473 17L37.4969 29.9563L36.2932 30.0095C30.5916 30.2613 25.321 33.1157 21.9945 37.7531Z" fill="white" stroke="#612EEA"/>
<rect x="1" y="1" width="40" height="40" stroke="#612EEA"/>
</svg>
