<svg width="40" height="40" viewBox="0 0 40 40" fill="none" xmlns="http://www.w3.org/2000/svg">
<g clip-path="url(#clip0_436_2178)">
<rect width="40" height="40" fill="#EFF0F6"/>
<path d="M40 0H0V40H40V0Z" fill="#EFF0F6"/>
<path d="M27.1555 24.4969H25.7553L25.259 24.0183C26.996 21.9977 28.0417 19.3745 28.0417 16.5209C28.0417 10.1578 22.8839 5 16.5209 5C10.1578 5 5 10.1578 5 16.5209C5 22.8839 10.1578 28.0417 16.5209 28.0417C19.3745 28.0417 21.9977 26.996 24.0183 25.259L24.4969 25.7553V27.1555L33.3591 36L36 33.3591L27.1555 24.4969ZM16.5209 24.4969C12.1075 24.4969 8.54488 20.9342 8.54488 16.5209C8.54488 12.1075 12.1075 8.54488 16.5209 8.54488C20.9342 8.54488 24.4969 12.1075 24.4969 16.5209C24.4969 20.9342 20.9342 24.4969 16.5209 24.4969Z" fill="white" stroke="#612EEA"/>
</g>
<defs>
<clipPath id="clip0_436_2178">
<rect width="40" height="40" fill="white"/>
</clipPath>
</defs>
</svg>
