<svg width="42" height="42" viewBox="0 0 42 42" fill="none" xmlns="http://www.w3.org/2000/svg">
<g clip-path="url(#clip0_436_2178)">
<rect x="1" y="1" width="40" height="40" fill="#EFF0F6"/>
<path d="M41 1H1V41H41V1Z" fill="#EFF0F6"/>
<path d="M28.1555 25.4969H26.7553L26.259 25.0183C27.996 22.9977 29.0417 20.3745 29.0417 17.5209C29.0417 11.1578 23.8839 6 17.5209 6C11.1578 6 6 11.1578 6 17.5209C6 23.8839 11.1578 29.0417 17.5209 29.0417C20.3745 29.0417 22.9977 27.996 25.0183 26.259L25.4969 26.7553V28.1555L34.3591 37L37 34.3591L28.1555 25.4969ZM17.5209 25.4969C13.1075 25.4969 9.54488 21.9342 9.54488 17.5209C9.54488 13.1075 13.1075 9.54488 17.5209 9.54488C21.9342 9.54488 25.4969 13.1075 25.4969 17.5209C25.4969 21.9342 21.9342 25.4969 17.5209 25.4969Z" fill="white" stroke="#612EEA"/>
</g>
<rect x="0.5" y="0.5" width="41" height="41" stroke="#612EEA"/>
<defs>
<clipPath id="clip0_436_2178">
<rect x="1" y="1" width="40" height="40" fill="white"/>
</clipPath>
</defs>
</svg>
